<mxfile host="app.diagrams.net" modified="2022-08-22T08:24:15.574Z" agent="5.0 (Windows NT 10.0; Win64; x64) AppleWebKit/537.36 (KHTML, like Gecko) Chrome/104.0.0.0 Safari/537.36" etag="25FcjSPQ8LYmBRk3gX3C" version="20.2.5" type="github" pages="2">
  <diagram id="tdwJPk2XB3sROhKPVtqK" name="Page-1">
    <mxGraphModel dx="868" dy="425" grid="0" gridSize="10" guides="1" tooltips="1" connect="1" arrows="1" fold="1" page="1" pageScale="1" pageWidth="827" pageHeight="1169" math="0" shadow="0">
      <root>
        <mxCell id="0" />
        <mxCell id="1" parent="0" />
        <mxCell id="NfI3IYg7BopeondDtThY-1" value="Diagramme&amp;nbsp; de séquence gerer &lt;span style=&quot;background-color: rgb(255, 255, 255);&quot;&gt;risques&lt;/span&gt;" style="shape=umlFrame;whiteSpace=wrap;html=1;rounded=0;shadow=0;glass=0;sketch=0;fontSize=15;fillColor=none;width=317;height=24;" parent="1" vertex="1">
          <mxGeometry x="31" y="14" width="1665" height="1017" as="geometry" />
        </mxCell>
        <mxCell id="NfI3IYg7BopeondDtThY-2" value="Loop: pour &lt;br&gt;&lt;div style=&quot;text-align: center;&quot;&gt;&lt;span style=&quot;background-color: initial;&quot;&gt;chaque risque&lt;/span&gt;&lt;/div&gt;" style="shape=umlFrame;whiteSpace=wrap;html=1;rounded=0;shadow=0;glass=0;sketch=0;fontSize=15;fillColor=none;width=157;height=39;align=left;" parent="1" vertex="1">
          <mxGeometry x="324" y="375" width="1322" height="164" as="geometry" />
        </mxCell>
        <mxCell id="NfI3IYg7BopeondDtThY-3" value=":Risk&lt;br&gt;Controler" style="shape=umlLifeline;perimeter=lifelinePerimeter;whiteSpace=wrap;html=1;container=1;collapsible=0;recursiveResize=0;outlineConnect=0;rounded=0;shadow=0;glass=0;sketch=0;fillColor=none;fontSize=15;fontColor=#005C00;strokeColor=#005C00;labelBackgroundColor=default;" parent="1" vertex="1">
          <mxGeometry x="604" y="65" width="130" height="950" as="geometry" />
        </mxCell>
        <mxCell id="NfI3IYg7BopeondDtThY-4" value="" style="html=1;points=[];perimeter=orthogonalPerimeter;rounded=0;shadow=0;glass=0;sketch=0;fontSize=15;fillColor=none;" parent="NfI3IYg7BopeondDtThY-3" vertex="1">
          <mxGeometry x="59" y="222" width="10" height="82" as="geometry" />
        </mxCell>
        <mxCell id="NfI3IYg7BopeondDtThY-5" value="" style="shape=umlLifeline;participant=umlActor;perimeter=lifelinePerimeter;whiteSpace=wrap;html=1;container=1;collapsible=0;recursiveResize=0;verticalAlign=top;spacingTop=36;outlineConnect=0;fillColor=none;size=32;sketch=0;shadow=0;rounded=0;glass=0;" parent="1" vertex="1">
          <mxGeometry x="110" y="65" width="20" height="950" as="geometry" />
        </mxCell>
        <mxCell id="NfI3IYg7BopeondDtThY-6" value="&lt;span style=&quot;color: rgb(0, 0, 0); font-family: Helvetica; font-size: 12px; font-style: normal; font-variant-ligatures: normal; font-variant-caps: normal; font-weight: 400; letter-spacing: normal; orphans: 2; text-align: center; text-indent: 0px; text-transform: none; widows: 2; word-spacing: 0px; -webkit-text-stroke-width: 0px; background-color: rgb(248, 249, 250); text-decoration-thickness: initial; text-decoration-style: initial; text-decoration-color: initial; float: none; display: inline !important;&quot;&gt;Administrateur&lt;/span&gt;" style="text;whiteSpace=wrap;html=1;" parent="1" vertex="1">
          <mxGeometry x="72" y="91" width="105" height="36" as="geometry" />
        </mxCell>
        <mxCell id="NfI3IYg7BopeondDtThY-7" value=":&lt;span style=&quot;background-color: rgb(255, 255, 255);&quot;&gt;Risk&lt;/span&gt;&lt;br&gt;Service" style="shape=umlLifeline;perimeter=lifelinePerimeter;whiteSpace=wrap;html=1;container=1;collapsible=0;recursiveResize=0;outlineConnect=0;rounded=0;shadow=0;glass=0;sketch=0;fillColor=none;fontSize=15;fontColor=#005C00;strokeColor=#005C00;" parent="1" vertex="1">
          <mxGeometry x="846" y="65" width="130" height="950" as="geometry" />
        </mxCell>
        <mxCell id="NfI3IYg7BopeondDtThY-8" value="" style="html=1;points=[];perimeter=orthogonalPerimeter;rounded=0;shadow=0;glass=0;sketch=0;fontSize=15;fillColor=none;" parent="NfI3IYg7BopeondDtThY-7" vertex="1">
          <mxGeometry x="59" y="231" width="10" height="66" as="geometry" />
        </mxCell>
        <mxCell id="NfI3IYg7BopeondDtThY-9" value="" style="shape=umlLifeline;participant=umlEntity;perimeter=lifelinePerimeter;whiteSpace=wrap;html=1;container=1;collapsible=0;recursiveResize=0;verticalAlign=top;spacingTop=36;outlineConnect=0;rounded=0;shadow=0;glass=0;sketch=0;fontSize=15;fillColor=none;fontColor=#CC6600;strokeColor=#005C00;" parent="1" vertex="1">
          <mxGeometry x="1037" y="65" width="98" height="950" as="geometry" />
        </mxCell>
        <mxCell id="NfI3IYg7BopeondDtThY-10" value="" style="html=1;points=[];perimeter=orthogonalPerimeter;rounded=0;shadow=0;glass=0;sketch=0;fontSize=15;fillColor=none;" parent="NfI3IYg7BopeondDtThY-9" vertex="1">
          <mxGeometry x="44" y="238" width="10" height="45" as="geometry" />
        </mxCell>
        <mxCell id="NfI3IYg7BopeondDtThY-11" value="&lt;span style=&quot;font-family: Helvetica; font-size: 15px; font-style: normal; font-variant-ligatures: normal; font-variant-caps: normal; font-weight: 400; letter-spacing: normal; orphans: 2; text-indent: 0px; text-transform: none; widows: 2; word-spacing: 0px; -webkit-text-stroke-width: 0px; background-color: rgb(248, 249, 250); text-decoration-thickness: initial; text-decoration-style: initial; text-decoration-color: initial; float: none; display: inline !important;&quot;&gt;Base de donnée&lt;br&gt;Risk_Change&lt;br&gt;&lt;/span&gt;" style="text;whiteSpace=wrap;html=1;fontSize=15;align=center;fillColor=none;fontColor=#005C00;" parent="NfI3IYg7BopeondDtThY-9" vertex="1">
          <mxGeometry x="-10.5" y="50" width="119" height="45" as="geometry" />
        </mxCell>
        <mxCell id="NfI3IYg7BopeondDtThY-12" value="" style="shape=umlLifeline;participant=umlBoundary;perimeter=lifelinePerimeter;whiteSpace=wrap;html=1;container=1;collapsible=0;recursiveResize=0;verticalAlign=top;spacingTop=36;outlineConnect=0;rounded=0;shadow=0;glass=0;sketch=0;fontSize=15;fillColor=none;fontColor=#CC6600;strokeColor=#005C00;" parent="1" vertex="1">
          <mxGeometry x="274" y="65" width="65" height="950" as="geometry" />
        </mxCell>
        <mxCell id="NfI3IYg7BopeondDtThY-14" value="" style="html=1;points=[];perimeter=orthogonalPerimeter;rounded=0;shadow=0;glass=0;sketch=0;fontSize=15;fillColor=none;" parent="NfI3IYg7BopeondDtThY-12" vertex="1">
          <mxGeometry x="27.5" y="214" width="10" height="350" as="geometry" />
        </mxCell>
        <mxCell id="NfI3IYg7BopeondDtThY-15" value=":Employee&lt;br&gt;Controler" style="shape=umlLifeline;perimeter=lifelinePerimeter;whiteSpace=wrap;html=1;container=1;collapsible=0;recursiveResize=0;outlineConnect=0;rounded=0;shadow=0;glass=0;sketch=0;fillColor=none;fontSize=15;strokeColor=#0000CC;fontColor=#0000CC;" parent="1" vertex="1">
          <mxGeometry x="1153" y="65" width="130" height="950" as="geometry" />
        </mxCell>
        <mxCell id="NfI3IYg7BopeondDtThY-16" value="" style="html=1;points=[];perimeter=orthogonalPerimeter;rounded=0;shadow=0;glass=0;sketch=0;fontSize=15;fillColor=none;" parent="NfI3IYg7BopeondDtThY-15" vertex="1">
          <mxGeometry x="59" y="334" width="10" height="86" as="geometry" />
        </mxCell>
        <mxCell id="NfI3IYg7BopeondDtThY-17" value="" style="shape=umlLifeline;participant=umlEntity;perimeter=lifelinePerimeter;whiteSpace=wrap;html=1;container=1;collapsible=0;recursiveResize=0;verticalAlign=top;spacingTop=36;outlineConnect=0;rounded=0;shadow=0;glass=0;sketch=0;fontSize=15;fillColor=none;strokeColor=#0000CC;" parent="1" vertex="1">
          <mxGeometry x="1577" y="60" width="91" height="950" as="geometry" />
        </mxCell>
        <mxCell id="NfI3IYg7BopeondDtThY-18" value="Base de donnée&lt;br&gt;Personnel" style="text;whiteSpace=wrap;html=1;fontSize=15;align=center;fillColor=default;fontColor=#0000CC;" parent="NfI3IYg7BopeondDtThY-17" vertex="1">
          <mxGeometry x="-11" y="55" width="118" height="48" as="geometry" />
        </mxCell>
        <mxCell id="NfI3IYg7BopeondDtThY-19" value="" style="html=1;points=[];perimeter=orthogonalPerimeter;rounded=0;shadow=0;glass=0;sketch=0;fontSize=15;fillColor=none;" parent="NfI3IYg7BopeondDtThY-17" vertex="1">
          <mxGeometry x="27.5" y="352.5" width="10" height="55" as="geometry" />
        </mxCell>
        <mxCell id="NfI3IYg7BopeondDtThY-20" value=":Employee&lt;br&gt;Service" style="shape=umlLifeline;perimeter=lifelinePerimeter;whiteSpace=wrap;html=1;container=1;collapsible=0;recursiveResize=0;outlineConnect=0;rounded=0;shadow=0;glass=0;sketch=0;fillColor=none;fontSize=15;strokeColor=#0000CC;fontColor=#0000CC;" parent="1" vertex="1">
          <mxGeometry x="1384" y="65" width="130" height="950" as="geometry" />
        </mxCell>
        <mxCell id="NfI3IYg7BopeondDtThY-21" value="" style="html=1;points=[];perimeter=orthogonalPerimeter;rounded=0;shadow=0;glass=0;sketch=0;fontSize=15;fillColor=none;" parent="NfI3IYg7BopeondDtThY-20" vertex="1">
          <mxGeometry x="59" y="337" width="10" height="70" as="geometry" />
        </mxCell>
        <mxCell id="NfI3IYg7BopeondDtThY-22" value="" style="edgeStyle=elbowEdgeStyle;fontSize=12;html=1;endArrow=blockThin;endFill=1;rounded=0;" parent="1" target="NfI3IYg7BopeondDtThY-14" edge="1">
          <mxGeometry width="160" relative="1" as="geometry">
            <mxPoint x="119.32352941176487" y="288" as="sourcePoint" />
            <mxPoint x="258.5" y="288" as="targetPoint" />
            <Array as="points">
              <mxPoint x="190" y="288" />
              <mxPoint x="171" y="261" />
            </Array>
          </mxGeometry>
        </mxCell>
        <mxCell id="NfI3IYg7BopeondDtThY-23" value="demander liste risques" style="edgeLabel;html=1;align=center;verticalAlign=middle;resizable=0;points=[];fontSize=15;" parent="NfI3IYg7BopeondDtThY-22" vertex="1" connectable="0">
          <mxGeometry x="-0.3952" relative="1" as="geometry">
            <mxPoint x="37" y="-22" as="offset" />
          </mxGeometry>
        </mxCell>
        <mxCell id="NfI3IYg7BopeondDtThY-24" value="" style="edgeStyle=elbowEdgeStyle;fontSize=12;html=1;endArrow=blockThin;endFill=1;rounded=0;" parent="1" source="NfI3IYg7BopeondDtThY-44" target="NfI3IYg7BopeondDtThY-4" edge="1">
          <mxGeometry width="160" relative="1" as="geometry">
            <mxPoint x="532" y="237" as="sourcePoint" />
            <mxPoint x="637" y="443" as="targetPoint" />
            <Array as="points">
              <mxPoint x="561" y="297" />
              <mxPoint x="444" y="291" />
              <mxPoint x="426" y="304" />
            </Array>
          </mxGeometry>
        </mxCell>
        <mxCell id="NfI3IYg7BopeondDtThY-25" value="query()" style="edgeLabel;html=1;align=center;verticalAlign=middle;resizable=0;points=[];fontSize=15;" parent="NfI3IYg7BopeondDtThY-24" vertex="1" connectable="0">
          <mxGeometry x="-0.2194" y="3" relative="1" as="geometry">
            <mxPoint x="13" y="-9" as="offset" />
          </mxGeometry>
        </mxCell>
        <mxCell id="NfI3IYg7BopeondDtThY-26" value="" style="edgeStyle=elbowEdgeStyle;fontSize=12;html=1;endArrow=blockThin;endFill=1;rounded=0;" parent="1" source="NfI3IYg7BopeondDtThY-4" target="NfI3IYg7BopeondDtThY-8" edge="1">
          <mxGeometry width="160" relative="1" as="geometry">
            <mxPoint x="394" y="355" as="sourcePoint" />
            <mxPoint x="554" y="355" as="targetPoint" />
            <Array as="points">
              <mxPoint x="753" y="308" />
              <mxPoint x="602" y="293" />
              <mxPoint x="527" y="322" />
            </Array>
          </mxGeometry>
        </mxCell>
        <mxCell id="NfI3IYg7BopeondDtThY-27" value="getAll&lt;span style=&quot;background-color: rgb(248, 249, 250);&quot;&gt;Risks&lt;/span&gt;()" style="edgeLabel;html=1;align=center;verticalAlign=middle;resizable=0;points=[];fontSize=15;" parent="NfI3IYg7BopeondDtThY-26" vertex="1" connectable="0">
          <mxGeometry x="0.1239" relative="1" as="geometry">
            <mxPoint x="-14" y="-11" as="offset" />
          </mxGeometry>
        </mxCell>
        <mxCell id="NfI3IYg7BopeondDtThY-28" value="" style="edgeStyle=elbowEdgeStyle;fontSize=12;html=1;endArrow=blockThin;endFill=1;rounded=0;" parent="1" source="NfI3IYg7BopeondDtThY-8" target="NfI3IYg7BopeondDtThY-10" edge="1">
          <mxGeometry width="160" relative="1" as="geometry">
            <mxPoint x="474" y="355" as="sourcePoint" />
            <mxPoint x="634" y="355" as="targetPoint" />
            <Array as="points">
              <mxPoint x="927" y="313" />
              <mxPoint x="766" y="318" />
            </Array>
          </mxGeometry>
        </mxCell>
        <mxCell id="NfI3IYg7BopeondDtThY-29" value="findAll()" style="edgeLabel;html=1;align=center;verticalAlign=middle;resizable=0;points=[];fontSize=15;" parent="NfI3IYg7BopeondDtThY-28" vertex="1" connectable="0">
          <mxGeometry x="-0.3561" y="2" relative="1" as="geometry">
            <mxPoint x="23" y="-9" as="offset" />
          </mxGeometry>
        </mxCell>
        <mxCell id="NfI3IYg7BopeondDtThY-30" value="liste des Risques" style="html=1;verticalAlign=bottom;endArrow=open;dashed=1;endSize=8;rounded=0;fontSize=15;" parent="1" source="NfI3IYg7BopeondDtThY-10" target="NfI3IYg7BopeondDtThY-8" edge="1">
          <mxGeometry relative="1" as="geometry">
            <mxPoint x="806" y="342" as="sourcePoint" />
            <mxPoint x="668" y="342" as="targetPoint" />
            <Array as="points">
              <mxPoint x="948" y="346" />
            </Array>
          </mxGeometry>
        </mxCell>
        <mxCell id="NfI3IYg7BopeondDtThY-31" value="liste des Risques" style="html=1;verticalAlign=bottom;endArrow=open;dashed=1;endSize=8;rounded=0;fontSize=15;" parent="1" source="NfI3IYg7BopeondDtThY-8" target="NfI3IYg7BopeondDtThY-4" edge="1">
          <mxGeometry relative="1" as="geometry">
            <mxPoint x="658" y="347" as="sourcePoint" />
            <mxPoint x="477" y="347" as="targetPoint" />
            <Array as="points">
              <mxPoint x="758" y="357" />
            </Array>
          </mxGeometry>
        </mxCell>
        <mxCell id="NfI3IYg7BopeondDtThY-32" value="liste des Risques" style="html=1;verticalAlign=bottom;endArrow=open;dashed=1;endSize=8;rounded=0;fontSize=15;" parent="1" source="NfI3IYg7BopeondDtThY-4" target="NfI3IYg7BopeondDtThY-44" edge="1">
          <mxGeometry x="-0.0189" y="-3" relative="1" as="geometry">
            <mxPoint x="479" y="359" as="sourcePoint" />
            <mxPoint x="298" y="359" as="targetPoint" />
            <Array as="points">
              <mxPoint x="512" y="364" />
            </Array>
            <mxPoint as="offset" />
          </mxGeometry>
        </mxCell>
        <mxCell id="NfI3IYg7BopeondDtThY-33" value="" style="edgeStyle=elbowEdgeStyle;fontSize=12;html=1;endArrow=blockThin;endFill=1;rounded=0;" parent="1" source="NfI3IYg7BopeondDtThY-44" target="NfI3IYg7BopeondDtThY-16" edge="1">
          <mxGeometry width="160" relative="1" as="geometry">
            <mxPoint x="312" y="410" as="sourcePoint" />
            <mxPoint x="985.5000000000005" y="410" as="targetPoint" />
            <Array as="points">
              <mxPoint x="873" y="410" />
            </Array>
          </mxGeometry>
        </mxCell>
        <mxCell id="NfI3IYg7BopeondDtThY-34" value="loadRequester(id)" style="edgeLabel;html=1;align=center;verticalAlign=middle;resizable=0;points=[];fontSize=15;" parent="NfI3IYg7BopeondDtThY-33" vertex="1" connectable="0">
          <mxGeometry x="-0.2561" y="-3" relative="1" as="geometry">
            <mxPoint x="45" y="-15" as="offset" />
          </mxGeometry>
        </mxCell>
        <mxCell id="NfI3IYg7BopeondDtThY-35" value="" style="fontSize=12;html=1;endArrow=blockThin;endFill=1;rounded=0;" parent="1" source="NfI3IYg7BopeondDtThY-16" target="NfI3IYg7BopeondDtThY-21" edge="1">
          <mxGeometry width="160" relative="1" as="geometry">
            <mxPoint x="917" y="389" as="sourcePoint" />
            <mxPoint x="1077" y="389" as="targetPoint" />
            <Array as="points">
              <mxPoint x="1263" y="416" />
            </Array>
          </mxGeometry>
        </mxCell>
        <mxCell id="NfI3IYg7BopeondDtThY-36" value="getEmployee(id)" style="edgeLabel;html=1;align=center;verticalAlign=middle;resizable=0;points=[];fontSize=15;" parent="NfI3IYg7BopeondDtThY-35" vertex="1" connectable="0">
          <mxGeometry x="-0.2535" y="1" relative="1" as="geometry">
            <mxPoint x="20" y="-11" as="offset" />
          </mxGeometry>
        </mxCell>
        <mxCell id="NfI3IYg7BopeondDtThY-37" value="" style="edgeStyle=elbowEdgeStyle;fontSize=12;html=1;endArrow=blockThin;endFill=1;rounded=0;" parent="1" source="NfI3IYg7BopeondDtThY-21" target="NfI3IYg7BopeondDtThY-19" edge="1">
          <mxGeometry width="160" relative="1" as="geometry">
            <mxPoint x="1065" y="396" as="sourcePoint" />
            <mxPoint x="1225" y="396" as="targetPoint" />
            <Array as="points">
              <mxPoint x="1442" y="420" />
              <mxPoint x="1334" y="409" />
            </Array>
          </mxGeometry>
        </mxCell>
        <mxCell id="NfI3IYg7BopeondDtThY-38" value="findById(id)" style="edgeLabel;html=1;align=center;verticalAlign=middle;resizable=0;points=[];fontSize=15;" parent="NfI3IYg7BopeondDtThY-37" vertex="1" connectable="0">
          <mxGeometry x="-0.2685" y="1" relative="1" as="geometry">
            <mxPoint x="15" y="-11" as="offset" />
          </mxGeometry>
        </mxCell>
        <mxCell id="NfI3IYg7BopeondDtThY-39" value="employee" style="html=1;verticalAlign=bottom;endArrow=open;dashed=1;endSize=8;rounded=0;fontSize=15;" parent="1" source="NfI3IYg7BopeondDtThY-19" target="NfI3IYg7BopeondDtThY-21" edge="1">
          <mxGeometry relative="1" as="geometry">
            <mxPoint x="1511" y="460" as="sourcePoint" />
            <mxPoint x="1221" y="462" as="targetPoint" />
            <Array as="points">
              <mxPoint x="1449" y="459" />
            </Array>
          </mxGeometry>
        </mxCell>
        <mxCell id="NfI3IYg7BopeondDtThY-40" value="employee" style="html=1;verticalAlign=bottom;endArrow=open;dashed=1;endSize=8;rounded=0;fontSize=15;" parent="1" source="NfI3IYg7BopeondDtThY-21" target="NfI3IYg7BopeondDtThY-16" edge="1">
          <mxGeometry relative="1" as="geometry">
            <mxPoint x="1158" y="471" as="sourcePoint" />
            <mxPoint x="991" y="471" as="targetPoint" />
            <Array as="points">
              <mxPoint x="1237" y="469" />
            </Array>
          </mxGeometry>
        </mxCell>
        <mxCell id="NfI3IYg7BopeondDtThY-41" value="employee" style="html=1;verticalAlign=bottom;endArrow=open;dashed=1;endSize=8;rounded=0;fontSize=15;startArrow=none;" parent="1" source="NfI3IYg7BopeondDtThY-16" target="NfI3IYg7BopeondDtThY-44" edge="1">
          <mxGeometry x="0.1211" y="-4" relative="1" as="geometry">
            <mxPoint x="981" y="480.9999999999998" as="sourcePoint" />
            <mxPoint x="312" y="396.5090909090909" as="targetPoint" />
            <Array as="points">
              <mxPoint x="964" y="482" />
            </Array>
            <mxPoint as="offset" />
          </mxGeometry>
        </mxCell>
        <mxCell id="NfI3IYg7BopeondDtThY-42" value="liste des Risques" style="html=1;verticalAlign=bottom;endArrow=open;dashed=1;endSize=8;rounded=0;fontSize=15;" parent="1" source="NfI3IYg7BopeondDtThY-14" target="NfI3IYg7BopeondDtThY-5" edge="1">
          <mxGeometry relative="1" as="geometry">
            <mxPoint x="258.5" y="577" as="sourcePoint" />
            <mxPoint x="119.32352941176464" y="577" as="targetPoint" />
            <Array as="points">
              <mxPoint x="219" y="585" />
            </Array>
          </mxGeometry>
        </mxCell>
        <mxCell id="NfI3IYg7BopeondDtThY-43" value="&amp;lt;&amp;lt;component&amp;gt;&amp;gt;&lt;br&gt;Risque" style="shape=umlLifeline;perimeter=lifelinePerimeter;whiteSpace=wrap;html=1;container=1;collapsible=0;recursiveResize=0;outlineConnect=0;rounded=0;shadow=0;glass=0;sketch=0;fillColor=none;fontSize=15;fontColor=#005C00;strokeColor=#005C00;" parent="1" vertex="1">
          <mxGeometry x="409" y="65" width="159" height="961" as="geometry" />
        </mxCell>
        <mxCell id="NfI3IYg7BopeondDtThY-44" value="" style="html=1;points=[];perimeter=orthogonalPerimeter;fontSize=15;fillColor=none;rounded=0;shadow=0;glass=0;sketch=0;" parent="NfI3IYg7BopeondDtThY-43" vertex="1">
          <mxGeometry x="74.5" y="217" width="10" height="297" as="geometry" />
        </mxCell>
        <mxCell id="NfI3IYg7BopeondDtThY-45" value="set&lt;span style=&quot;text-align: center;&quot;&gt;Requester&lt;/span&gt;(employee)" style="edgeStyle=orthogonalEdgeStyle;html=1;align=left;spacingLeft=2;endArrow=block;rounded=0;fontSize=15;" parent="NfI3IYg7BopeondDtThY-43" source="NfI3IYg7BopeondDtThY-44" target="NfI3IYg7BopeondDtThY-44" edge="1">
          <mxGeometry relative="1" as="geometry">
            <mxPoint x="-59" y="421" as="sourcePoint" />
            <Array as="points">
              <mxPoint x="114" y="437" />
              <mxPoint x="114" y="465" />
            </Array>
            <mxPoint x="-46" y="452" as="targetPoint" />
          </mxGeometry>
        </mxCell>
        <mxCell id="NfI3IYg7BopeondDtThY-46" value="" style="fontSize=12;html=1;endArrow=blockThin;endFill=1;rounded=0;" parent="1" source="NfI3IYg7BopeondDtThY-14" target="NfI3IYg7BopeondDtThY-44" edge="1">
          <mxGeometry width="160" relative="1" as="geometry">
            <mxPoint x="268.5" y="289" as="sourcePoint" />
            <mxPoint x="599" y="417" as="targetPoint" />
            <Array as="points">
              <mxPoint x="381" y="295" />
            </Array>
          </mxGeometry>
        </mxCell>
        <mxCell id="NfI3IYg7BopeondDtThY-47" value="loadRisks()" style="edgeLabel;html=1;align=center;verticalAlign=middle;resizable=0;points=[];fontSize=15;" parent="NfI3IYg7BopeondDtThY-46" vertex="1" connectable="0">
          <mxGeometry x="-0.0064" y="-3" relative="1" as="geometry">
            <mxPoint x="11" y="-16" as="offset" />
          </mxGeometry>
        </mxCell>
        <mxCell id="NfI3IYg7BopeondDtThY-48" value="" style="html=1;verticalAlign=bottom;endArrow=open;dashed=1;endSize=8;rounded=0;" parent="1" source="NfI3IYg7BopeondDtThY-44" target="NfI3IYg7BopeondDtThY-14" edge="1">
          <mxGeometry relative="1" as="geometry">
            <mxPoint x="518" y="479" as="sourcePoint" />
            <mxPoint x="268.5" y="565.0000000000005" as="targetPoint" />
            <Array as="points">
              <mxPoint x="373" y="565" />
            </Array>
          </mxGeometry>
        </mxCell>
        <mxCell id="NfI3IYg7BopeondDtThY-49" value="&lt;span style=&quot;font-size: 15px;&quot;&gt;liste des Risques&lt;/span&gt;" style="edgeLabel;html=1;align=center;verticalAlign=middle;resizable=0;points=[];" parent="NfI3IYg7BopeondDtThY-48" vertex="1" connectable="0">
          <mxGeometry x="-0.2232" y="3" relative="1" as="geometry">
            <mxPoint x="-19" y="-15" as="offset" />
          </mxGeometry>
        </mxCell>
        <mxCell id="NfI3IYg7BopeondDtThY-50" value="ref" style="shape=umlFrame;whiteSpace=wrap;html=1;labelBackgroundColor=none;fontSize=15;" parent="1" vertex="1">
          <mxGeometry x="40" y="190" width="1605" height="44" as="geometry" />
        </mxCell>
        <mxCell id="NfI3IYg7BopeondDtThY-51" value="&amp;lt;&amp;lt;Authentification&amp;gt;&amp;gt;" style="text;html=1;strokeColor=none;fillColor=none;align=center;verticalAlign=middle;whiteSpace=wrap;rounded=0;labelBackgroundColor=none;fontSize=15;fontColor=#000000;" parent="1" vertex="1">
          <mxGeometry x="722" y="197" width="152" height="30" as="geometry" />
        </mxCell>
        <mxCell id="NfI3IYg7BopeondDtThY-52" value="ref" style="shape=umlFrame;whiteSpace=wrap;html=1;labelBackgroundColor=none;fontSize=15;" parent="1" vertex="1">
          <mxGeometry x="40" y="645" width="1605" height="55" as="geometry" />
        </mxCell>
        <mxCell id="NfI3IYg7BopeondDtThY-53" value="ajouter Risque" style="text;html=1;strokeColor=none;fillColor=none;align=center;verticalAlign=middle;whiteSpace=wrap;rounded=0;labelBackgroundColor=none;fontSize=15;fontColor=#000000;" parent="1" vertex="1">
          <mxGeometry x="675" y="653" width="283" height="30" as="geometry" />
        </mxCell>
        <mxCell id="NfI3IYg7BopeondDtThY-54" value="ref" style="shape=umlFrame;whiteSpace=wrap;html=1;labelBackgroundColor=none;fontSize=15;" parent="1" vertex="1">
          <mxGeometry x="40" y="729" width="1605" height="55" as="geometry" />
        </mxCell>
        <mxCell id="NfI3IYg7BopeondDtThY-55" value="modifier Risque" style="text;html=1;strokeColor=none;fillColor=none;align=center;verticalAlign=middle;whiteSpace=wrap;rounded=0;labelBackgroundColor=none;fontSize=15;fontColor=#000000;" parent="1" vertex="1">
          <mxGeometry x="675" y="737" width="283" height="30" as="geometry" />
        </mxCell>
        <mxCell id="NfI3IYg7BopeondDtThY-56" value="ref" style="shape=umlFrame;whiteSpace=wrap;html=1;labelBackgroundColor=none;fontSize=15;" parent="1" vertex="1">
          <mxGeometry x="40" y="810" width="1605" height="55" as="geometry" />
        </mxCell>
        <mxCell id="NfI3IYg7BopeondDtThY-57" value="supprimer Risque" style="text;html=1;strokeColor=none;fillColor=none;align=center;verticalAlign=middle;whiteSpace=wrap;rounded=0;labelBackgroundColor=none;fontSize=15;fontColor=#000000;" parent="1" vertex="1">
          <mxGeometry x="676.5" y="818" width="283" height="30" as="geometry" />
        </mxCell>
        <mxCell id="NfI3IYg7BopeondDtThY-58" value="ref" style="shape=umlFrame;whiteSpace=wrap;html=1;labelBackgroundColor=none;fontSize=15;" parent="1" vertex="1">
          <mxGeometry x="40" y="889" width="1605" height="55" as="geometry" />
        </mxCell>
        <mxCell id="NfI3IYg7BopeondDtThY-59" value="consulter Risque" style="text;html=1;strokeColor=none;fillColor=none;align=center;verticalAlign=middle;whiteSpace=wrap;rounded=0;labelBackgroundColor=none;fontSize=15;fontColor=#000000;" parent="1" vertex="1">
          <mxGeometry x="675" y="897" width="283" height="30" as="geometry" />
        </mxCell>
        <mxCell id="NfI3IYg7BopeondDtThY-13" value="&lt;span style=&quot;font-family: Helvetica; font-size: 15px; font-style: normal; font-variant-ligatures: normal; font-variant-caps: normal; font-weight: 400; letter-spacing: normal; orphans: 2; text-indent: 0px; text-transform: none; widows: 2; word-spacing: 0px; -webkit-text-stroke-width: 0px; text-decoration-thickness: initial; text-decoration-style: initial; text-decoration-color: initial; float: none; display: inline !important;&quot;&gt;Interface IHM&lt;/span&gt;&lt;br style=&quot;font-family: Helvetica; font-size: 15px; font-style: normal; font-variant-ligatures: normal; font-variant-caps: normal; font-weight: 400; letter-spacing: normal; orphans: 2; text-indent: 0px; text-transform: none; widows: 2; word-spacing: 0px; -webkit-text-stroke-width: 0px; text-decoration-thickness: initial; text-decoration-style: initial; text-decoration-color: initial;&quot;&gt;Risque" style="text;whiteSpace=wrap;html=1;fontSize=15;align=center;fillColor=default;fontColor=#005C00;labelBackgroundColor=none;" parent="1" vertex="1">
          <mxGeometry x="250" y="116" width="122" height="45" as="geometry" />
        </mxCell>
      </root>
    </mxGraphModel>
  </diagram>
  <diagram id="e5KyyV-V2WP39n7FiWfx" name="Page-2">
    <mxGraphModel dx="2188" dy="1222" grid="0" gridSize="10" guides="1" tooltips="1" connect="1" arrows="1" fold="1" page="1" pageScale="1" pageWidth="827" pageHeight="1169" math="0" shadow="0">
      <root>
        <mxCell id="0" />
        <mxCell id="1" parent="0" />
        <mxCell id="R8rWvNV2IlhwqvTZbYEQ-1" value="Diagramme&amp;nbsp; de séquence consulter&amp;nbsp;&lt;span style=&quot;background-color: rgb(255, 255, 255);&quot;&gt;risque&lt;/span&gt;" style="shape=umlFrame;whiteSpace=wrap;html=1;rounded=0;shadow=0;glass=0;sketch=0;fontSize=15;fillColor=none;width=317;height=24;" vertex="1" parent="1">
          <mxGeometry x="68" y="27" width="1514" height="1017" as="geometry" />
        </mxCell>
        <mxCell id="MHh_uaF2gggkVHQZjeaD-112" value="alt: TaskId" style="shape=umlFrame;whiteSpace=wrap;html=1;labelBackgroundColor=none;fontSize=14;fontColor=#000000;strokeColor=#000000;fillColor=none;width=72;height=26;align=left;" vertex="1" parent="1">
          <mxGeometry x="318" y="743" width="1237" height="201" as="geometry" />
        </mxCell>
        <mxCell id="MHh_uaF2gggkVHQZjeaD-5" value="" style="shape=umlLifeline;participant=umlActor;perimeter=lifelinePerimeter;whiteSpace=wrap;html=1;container=1;collapsible=0;recursiveResize=0;verticalAlign=top;spacingTop=36;outlineConnect=0;fillColor=none;size=32;sketch=0;shadow=0;rounded=0;glass=0;" vertex="1" parent="1">
          <mxGeometry x="110" y="65" width="20" height="960" as="geometry" />
        </mxCell>
        <mxCell id="MHh_uaF2gggkVHQZjeaD-6" value="&lt;span style=&quot;color: rgb(0, 0, 0); font-family: Helvetica; font-size: 12px; font-style: normal; font-variant-ligatures: normal; font-variant-caps: normal; font-weight: 400; letter-spacing: normal; orphans: 2; text-align: center; text-indent: 0px; text-transform: none; widows: 2; word-spacing: 0px; -webkit-text-stroke-width: 0px; background-color: rgb(248, 249, 250); text-decoration-thickness: initial; text-decoration-style: initial; text-decoration-color: initial; float: none; display: inline !important;&quot;&gt;Administrateur&lt;/span&gt;" style="text;whiteSpace=wrap;html=1;" vertex="1" parent="1">
          <mxGeometry x="72" y="91" width="105" height="36" as="geometry" />
        </mxCell>
        <mxCell id="MHh_uaF2gggkVHQZjeaD-12" value="" style="shape=umlLifeline;participant=umlBoundary;perimeter=lifelinePerimeter;whiteSpace=wrap;html=1;container=1;collapsible=0;recursiveResize=0;verticalAlign=top;spacingTop=36;outlineConnect=0;rounded=0;shadow=0;glass=0;sketch=0;fontSize=15;fillColor=none;fontColor=#CC6600;strokeColor=#005C00;" vertex="1" parent="1">
          <mxGeometry x="252" y="65" width="65" height="960" as="geometry" />
        </mxCell>
        <mxCell id="MHh_uaF2gggkVHQZjeaD-13" value="" style="html=1;points=[];perimeter=orthogonalPerimeter;rounded=0;shadow=0;glass=0;sketch=0;fontSize=15;fillColor=none;" vertex="1" parent="MHh_uaF2gggkVHQZjeaD-12">
          <mxGeometry x="27.5" y="214" width="10" height="61" as="geometry" />
        </mxCell>
        <mxCell id="MHh_uaF2gggkVHQZjeaD-132" value="" style="html=1;points=[];perimeter=orthogonalPerimeter;rounded=0;shadow=0;glass=0;sketch=0;fontSize=15;fillColor=none;" vertex="1" parent="MHh_uaF2gggkVHQZjeaD-12">
          <mxGeometry x="27.5" y="893" width="10" height="43" as="geometry" />
        </mxCell>
        <mxCell id="MHh_uaF2gggkVHQZjeaD-21" value="" style="edgeStyle=elbowEdgeStyle;fontSize=12;html=1;endArrow=blockThin;endFill=1;rounded=0;" edge="1" parent="1" target="MHh_uaF2gggkVHQZjeaD-13">
          <mxGeometry width="160" relative="1" as="geometry">
            <mxPoint x="119.32352941176487" y="288" as="sourcePoint" />
            <mxPoint x="258.5" y="288" as="targetPoint" />
            <Array as="points">
              <mxPoint x="190" y="288" />
              <mxPoint x="171" y="261" />
            </Array>
          </mxGeometry>
        </mxCell>
        <mxCell id="MHh_uaF2gggkVHQZjeaD-22" value="cliquer sur icone &lt;br&gt;consulter" style="edgeLabel;html=1;align=center;verticalAlign=middle;resizable=0;points=[];fontSize=15;" vertex="1" connectable="0" parent="MHh_uaF2gggkVHQZjeaD-21">
          <mxGeometry x="-0.3952" relative="1" as="geometry">
            <mxPoint x="34" y="-24" as="offset" />
          </mxGeometry>
        </mxCell>
        <mxCell id="MHh_uaF2gggkVHQZjeaD-23" value="" style="edgeStyle=elbowEdgeStyle;fontSize=12;html=1;endArrow=blockThin;endFill=1;rounded=0;" edge="1" parent="1" source="MHh_uaF2gggkVHQZjeaD-43" target="MHh_uaF2gggkVHQZjeaD-61">
          <mxGeometry width="160" relative="1" as="geometry">
            <mxPoint x="532" y="237" as="sourcePoint" />
            <mxPoint x="637" y="443" as="targetPoint" />
            <Array as="points">
              <mxPoint x="571" y="363" />
              <mxPoint x="444" y="291" />
              <mxPoint x="426" y="304" />
            </Array>
          </mxGeometry>
        </mxCell>
        <mxCell id="MHh_uaF2gggkVHQZjeaD-24" value="find(accordId)" style="edgeLabel;html=1;align=center;verticalAlign=middle;resizable=0;points=[];fontSize=15;" vertex="1" connectable="0" parent="MHh_uaF2gggkVHQZjeaD-23">
          <mxGeometry x="-0.2194" y="3" relative="1" as="geometry">
            <mxPoint x="13" y="-9" as="offset" />
          </mxGeometry>
        </mxCell>
        <mxCell id="MHh_uaF2gggkVHQZjeaD-42" value="&amp;lt;&amp;lt;component&amp;gt;&amp;gt;&lt;br&gt;Risque" style="shape=umlLifeline;perimeter=lifelinePerimeter;whiteSpace=wrap;html=1;container=1;collapsible=0;recursiveResize=0;outlineConnect=0;rounded=0;shadow=0;glass=0;sketch=0;fillColor=none;fontSize=15;fontColor=#005C00;strokeColor=#005C00;" vertex="1" parent="1">
          <mxGeometry x="382" y="65" width="114" height="960" as="geometry" />
        </mxCell>
        <mxCell id="MHh_uaF2gggkVHQZjeaD-111" value="alt:&amp;nbsp; Tache" style="shape=umlFrame;whiteSpace=wrap;html=1;labelBackgroundColor=none;fontSize=14;fontColor=#000000;strokeColor=#000000;fillColor=none;width=87;height=26;align=left;" vertex="1" parent="MHh_uaF2gggkVHQZjeaD-42">
          <mxGeometry x="-42" y="802" width="300" height="61" as="geometry" />
        </mxCell>
        <mxCell id="MHh_uaF2gggkVHQZjeaD-88" value="alt: IterationId" style="shape=umlFrame;whiteSpace=wrap;html=1;labelBackgroundColor=none;fontSize=14;fontColor=#000000;strokeColor=#000000;fillColor=none;width=94;height=25;align=left;" vertex="1" parent="MHh_uaF2gggkVHQZjeaD-42">
          <mxGeometry x="-64" y="457" width="1237" height="201" as="geometry" />
        </mxCell>
        <mxCell id="MHh_uaF2gggkVHQZjeaD-107" value="alt:&amp;nbsp; Iteration" style="shape=umlFrame;whiteSpace=wrap;html=1;labelBackgroundColor=none;fontSize=14;fontColor=#000000;strokeColor=#000000;fillColor=none;width=87;height=26;align=left;" vertex="1" parent="MHh_uaF2gggkVHQZjeaD-42">
          <mxGeometry x="-42" y="582" width="300" height="61" as="geometry" />
        </mxCell>
        <mxCell id="MHh_uaF2gggkVHQZjeaD-93" value="alt:&amp;nbsp; Accord" style="shape=umlFrame;whiteSpace=wrap;html=1;labelBackgroundColor=none;fontSize=14;fontColor=#000000;strokeColor=#000000;fillColor=none;width=78;height=28;align=left;" vertex="1" parent="MHh_uaF2gggkVHQZjeaD-42">
          <mxGeometry x="-42" y="378" width="300" height="61" as="geometry" />
        </mxCell>
        <mxCell id="MHh_uaF2gggkVHQZjeaD-43" value="" style="html=1;points=[];perimeter=orthogonalPerimeter;fontSize=15;fillColor=none;rounded=0;shadow=0;glass=0;sketch=0;" vertex="1" parent="MHh_uaF2gggkVHQZjeaD-42">
          <mxGeometry x="52" y="220" width="10" height="697" as="geometry" />
        </mxCell>
        <mxCell id="MHh_uaF2gggkVHQZjeaD-44" value="" style="edgeStyle=orthogonalEdgeStyle;html=1;align=left;spacingLeft=2;endArrow=block;rounded=0;fontSize=15;" edge="1" parent="MHh_uaF2gggkVHQZjeaD-42" source="MHh_uaF2gggkVHQZjeaD-43" target="MHh_uaF2gggkVHQZjeaD-43">
          <mxGeometry x="0.0699" y="13" relative="1" as="geometry">
            <mxPoint x="-59" y="421" as="sourcePoint" />
            <Array as="points">
              <mxPoint x="114" y="243" />
              <mxPoint x="114" y="269" />
            </Array>
            <mxPoint x="-46" y="452" as="targetPoint" />
            <mxPoint as="offset" />
          </mxGeometry>
        </mxCell>
        <mxCell id="MHh_uaF2gggkVHQZjeaD-76" value="&lt;span style=&quot;color: rgb(0, 0, 0); font-size: 15px; text-align: left;&quot;&gt;set&lt;/span&gt;&lt;span style=&quot;color: rgb(0, 0, 0); font-size: 15px;&quot;&gt;Risk&lt;/span&gt;&lt;span style=&quot;color: rgb(0, 0, 0); font-size: 15px; text-align: left;&quot;&gt;(&lt;/span&gt;&lt;span style=&quot;color: rgb(0, 0, 0); font-size: 15px;&quot;&gt;riskLog&lt;/span&gt;&lt;span style=&quot;color: rgb(0, 0, 0); font-size: 15px; text-align: left;&quot;&gt;)&lt;/span&gt;" style="edgeLabel;html=1;align=center;verticalAlign=middle;resizable=0;points=[];fontColor=#005C00;" vertex="1" connectable="0" parent="MHh_uaF2gggkVHQZjeaD-44">
          <mxGeometry x="0.053" y="1" relative="1" as="geometry">
            <mxPoint x="59" y="-3" as="offset" />
          </mxGeometry>
        </mxCell>
        <mxCell id="MHh_uaF2gggkVHQZjeaD-91" value="" style="edgeStyle=orthogonalEdgeStyle;html=1;align=left;spacingLeft=2;endArrow=block;rounded=0;fontSize=15;" edge="1" parent="MHh_uaF2gggkVHQZjeaD-42" source="MHh_uaF2gggkVHQZjeaD-43" target="MHh_uaF2gggkVHQZjeaD-43">
          <mxGeometry x="0.0699" y="13" relative="1" as="geometry">
            <mxPoint x="94.5" y="253" as="sourcePoint" />
            <Array as="points">
              <mxPoint x="125" y="388" />
              <mxPoint x="125" y="409" />
            </Array>
            <mxPoint x="94.5" y="279" as="targetPoint" />
            <mxPoint as="offset" />
          </mxGeometry>
        </mxCell>
        <mxCell id="MHh_uaF2gggkVHQZjeaD-92" value="&lt;div style=&quot;text-align: center;&quot;&gt;&lt;span style=&quot;color: rgb(0, 0, 0); font-size: 15px; text-align: left;&quot;&gt;setAccord&lt;/span&gt;&lt;span style=&quot;color: rgb(0, 0, 0); font-size: 15px; text-align: left;&quot;&gt;(&lt;/span&gt;&lt;span style=&quot;color: rgb(0, 0, 0); font-size: 15px;&quot;&gt;accord&lt;/span&gt;&lt;span style=&quot;color: rgb(0, 0, 0); font-size: 15px; text-align: left;&quot;&gt;)&lt;/span&gt;&lt;/div&gt;" style="edgeLabel;html=1;align=center;verticalAlign=middle;resizable=0;points=[];fontColor=#005C00;" vertex="1" connectable="0" parent="MHh_uaF2gggkVHQZjeaD-91">
          <mxGeometry x="0.053" y="1" relative="1" as="geometry">
            <mxPoint x="63" y="-3" as="offset" />
          </mxGeometry>
        </mxCell>
        <mxCell id="MHh_uaF2gggkVHQZjeaD-94" value="&lt;div style=&quot;text-align: left; font-size: 15px;&quot;&gt;&lt;/div&gt;&lt;span style=&quot;text-align: right;&quot;&gt;&lt;div style=&quot;text-align: left;&quot;&gt;&lt;span style=&quot;background-color: initial;&quot;&gt;[True&lt;/span&gt;&lt;span style=&quot;background-color: initial;&quot;&gt;]&lt;/span&gt;&lt;/div&gt;&lt;/span&gt;" style="text;html=1;strokeColor=none;fillColor=none;align=center;verticalAlign=middle;whiteSpace=wrap;rounded=0;fontSize=15;fontColor=#009900;" vertex="1" parent="MHh_uaF2gggkVHQZjeaD-42">
          <mxGeometry x="-20" y="412" width="46" height="21" as="geometry" />
        </mxCell>
        <mxCell id="MHh_uaF2gggkVHQZjeaD-90" value="&lt;div style=&quot;text-align: left; font-size: 15px;&quot;&gt;&lt;/div&gt;&lt;span style=&quot;text-align: right;&quot;&gt;&lt;div style=&quot;text-align: left;&quot;&gt;&lt;span style=&quot;background-color: initial;&quot;&gt;[True&lt;/span&gt;&lt;span style=&quot;background-color: initial;&quot;&gt;]&lt;/span&gt;&lt;/div&gt;&lt;/span&gt;" style="text;html=1;strokeColor=none;fillColor=none;align=center;verticalAlign=middle;whiteSpace=wrap;rounded=0;fontSize=15;fontColor=#009900;" vertex="1" parent="MHh_uaF2gggkVHQZjeaD-42">
          <mxGeometry x="-36" y="478" width="46" height="28" as="geometry" />
        </mxCell>
        <mxCell id="MHh_uaF2gggkVHQZjeaD-110" value="&lt;div style=&quot;text-align: left; font-size: 15px;&quot;&gt;&lt;/div&gt;&lt;span style=&quot;text-align: right;&quot;&gt;&lt;div style=&quot;text-align: left;&quot;&gt;&lt;span style=&quot;background-color: initial;&quot;&gt;[True&lt;/span&gt;&lt;span style=&quot;background-color: initial;&quot;&gt;]&lt;/span&gt;&lt;/div&gt;&lt;/span&gt;" style="text;html=1;strokeColor=none;fillColor=none;align=center;verticalAlign=middle;whiteSpace=wrap;rounded=0;fontSize=15;fontColor=#009900;" vertex="1" parent="MHh_uaF2gggkVHQZjeaD-42">
          <mxGeometry x="-20" y="616" width="46" height="21" as="geometry" />
        </mxCell>
        <mxCell id="MHh_uaF2gggkVHQZjeaD-108" value="" style="edgeStyle=orthogonalEdgeStyle;html=1;align=left;spacingLeft=2;endArrow=block;rounded=0;fontSize=15;" edge="1" parent="MHh_uaF2gggkVHQZjeaD-42" source="MHh_uaF2gggkVHQZjeaD-43" target="MHh_uaF2gggkVHQZjeaD-43">
          <mxGeometry x="0.0699" y="13" relative="1" as="geometry">
            <mxPoint x="80" y="590" as="sourcePoint" />
            <Array as="points">
              <mxPoint x="111" y="590" />
              <mxPoint x="111" y="611" />
            </Array>
            <mxPoint x="80" y="611" as="targetPoint" />
            <mxPoint as="offset" />
          </mxGeometry>
        </mxCell>
        <mxCell id="MHh_uaF2gggkVHQZjeaD-109" value="&lt;div style=&quot;text-align: center;&quot;&gt;&lt;span style=&quot;color: rgb(0, 0, 0); font-size: 15px; text-align: left;&quot;&gt;setIteration&lt;/span&gt;&lt;span style=&quot;color: rgb(0, 0, 0); font-size: 15px; text-align: left;&quot;&gt;(&lt;/span&gt;&lt;span style=&quot;color: rgb(0, 0, 0); font-size: 15px;&quot;&gt;iteration&lt;/span&gt;&lt;span style=&quot;color: rgb(0, 0, 0); font-size: 15px; text-align: left;&quot;&gt;)&lt;/span&gt;&lt;/div&gt;" style="edgeLabel;html=1;align=center;verticalAlign=middle;resizable=0;points=[];fontColor=#005C00;" vertex="1" connectable="0" parent="MHh_uaF2gggkVHQZjeaD-108">
          <mxGeometry x="0.053" y="1" relative="1" as="geometry">
            <mxPoint x="70" y="-3" as="offset" />
          </mxGeometry>
        </mxCell>
        <mxCell id="MHh_uaF2gggkVHQZjeaD-115" value="" style="edgeStyle=orthogonalEdgeStyle;html=1;align=left;spacingLeft=2;endArrow=block;rounded=0;fontSize=15;" edge="1" parent="MHh_uaF2gggkVHQZjeaD-42" source="MHh_uaF2gggkVHQZjeaD-43" target="MHh_uaF2gggkVHQZjeaD-43">
          <mxGeometry x="0.0699" y="13" relative="1" as="geometry">
            <mxPoint x="69" y="811" as="sourcePoint" />
            <Array as="points">
              <mxPoint x="102" y="811" />
              <mxPoint x="102" y="832" />
            </Array>
            <mxPoint x="69" y="832.0000000000002" as="targetPoint" />
            <mxPoint as="offset" />
          </mxGeometry>
        </mxCell>
        <mxCell id="MHh_uaF2gggkVHQZjeaD-116" value="&lt;div style=&quot;text-align: center;&quot;&gt;&lt;span style=&quot;color: rgb(0, 0, 0); font-size: 15px; text-align: left;&quot;&gt;setTask&lt;/span&gt;&lt;span style=&quot;color: rgb(0, 0, 0); font-size: 15px; text-align: left;&quot;&gt;(&lt;/span&gt;&lt;span style=&quot;color: rgb(0, 0, 0); font-size: 15px;&quot;&gt;tache&lt;/span&gt;&lt;span style=&quot;color: rgb(0, 0, 0); font-size: 15px; text-align: left;&quot;&gt;)&lt;/span&gt;&lt;/div&gt;" style="edgeLabel;html=1;align=center;verticalAlign=middle;resizable=0;points=[];fontColor=#005C00;" vertex="1" connectable="0" parent="MHh_uaF2gggkVHQZjeaD-115">
          <mxGeometry x="0.053" y="1" relative="1" as="geometry">
            <mxPoint x="52" y="-3" as="offset" />
          </mxGeometry>
        </mxCell>
        <mxCell id="MHh_uaF2gggkVHQZjeaD-45" value="" style="fontSize=12;html=1;endArrow=blockThin;endFill=1;rounded=0;" edge="1" parent="1" source="MHh_uaF2gggkVHQZjeaD-13" target="MHh_uaF2gggkVHQZjeaD-43">
          <mxGeometry width="160" relative="1" as="geometry">
            <mxPoint x="268.5" y="289" as="sourcePoint" />
            <mxPoint x="599" y="417" as="targetPoint" />
            <Array as="points">
              <mxPoint x="381" y="295" />
            </Array>
          </mxGeometry>
        </mxCell>
        <mxCell id="MHh_uaF2gggkVHQZjeaD-46" value="subscribe(riskLog)" style="edgeLabel;html=1;align=center;verticalAlign=middle;resizable=0;points=[];fontSize=15;" vertex="1" connectable="0" parent="MHh_uaF2gggkVHQZjeaD-45">
          <mxGeometry x="-0.0064" y="-3" relative="1" as="geometry">
            <mxPoint x="1" y="-19" as="offset" />
          </mxGeometry>
        </mxCell>
        <mxCell id="MHh_uaF2gggkVHQZjeaD-59" value="&lt;span style=&quot;font-family: Helvetica; font-size: 15px; font-style: normal; font-variant-ligatures: normal; font-variant-caps: normal; font-weight: 400; letter-spacing: normal; orphans: 2; text-indent: 0px; text-transform: none; widows: 2; word-spacing: 0px; -webkit-text-stroke-width: 0px; text-decoration-thickness: initial; text-decoration-style: initial; text-decoration-color: initial; float: none; display: inline !important;&quot;&gt;Interface IHM&lt;/span&gt;&lt;br style=&quot;font-family: Helvetica; font-size: 15px; font-style: normal; font-variant-ligatures: normal; font-variant-caps: normal; font-weight: 400; letter-spacing: normal; orphans: 2; text-indent: 0px; text-transform: none; widows: 2; word-spacing: 0px; -webkit-text-stroke-width: 0px; text-decoration-thickness: initial; text-decoration-style: initial; text-decoration-color: initial;&quot;&gt;Risque" style="text;whiteSpace=wrap;html=1;fontSize=15;align=center;fillColor=default;fontColor=#005C00;labelBackgroundColor=none;" vertex="1" parent="1">
          <mxGeometry x="223.5" y="114" width="122" height="45" as="geometry" />
        </mxCell>
        <mxCell id="MHh_uaF2gggkVHQZjeaD-60" value=":TimeAndMaterial&lt;br&gt;Controler" style="shape=umlLifeline;perimeter=lifelinePerimeter;whiteSpace=wrap;html=1;container=1;collapsible=0;recursiveResize=0;outlineConnect=0;rounded=0;shadow=0;glass=0;sketch=0;fillColor=none;fontSize=15;fontColor=#CC6600;strokeColor=#CC6600;" vertex="1" parent="1">
          <mxGeometry x="571" y="65" width="130" height="960" as="geometry" />
        </mxCell>
        <mxCell id="MHh_uaF2gggkVHQZjeaD-61" value="" style="html=1;points=[];perimeter=orthogonalPerimeter;rounded=0;shadow=0;glass=0;sketch=0;fontSize=15;fillColor=none;" vertex="1" parent="MHh_uaF2gggkVHQZjeaD-60">
          <mxGeometry x="60" y="274" width="10" height="99" as="geometry" />
        </mxCell>
        <mxCell id="MHh_uaF2gggkVHQZjeaD-62" value=":TimeAndMaterial&lt;br&gt;Service" style="shape=umlLifeline;perimeter=lifelinePerimeter;whiteSpace=wrap;html=1;container=1;collapsible=0;recursiveResize=0;outlineConnect=0;rounded=0;shadow=0;glass=0;sketch=0;fillColor=none;fontSize=15;fontColor=#CC6600;strokeColor=#CC6600;" vertex="1" parent="1">
          <mxGeometry x="762" y="65" width="130" height="960" as="geometry" />
        </mxCell>
        <mxCell id="MHh_uaF2gggkVHQZjeaD-63" value="" style="html=1;points=[];perimeter=orthogonalPerimeter;rounded=0;shadow=0;glass=0;sketch=0;fontSize=15;fillColor=none;" vertex="1" parent="MHh_uaF2gggkVHQZjeaD-62">
          <mxGeometry x="60" y="297" width="10" height="66" as="geometry" />
        </mxCell>
        <mxCell id="MHh_uaF2gggkVHQZjeaD-64" value="" style="shape=umlLifeline;participant=umlEntity;perimeter=lifelinePerimeter;whiteSpace=wrap;html=1;container=1;collapsible=0;recursiveResize=0;verticalAlign=top;spacingTop=36;outlineConnect=0;rounded=0;shadow=0;glass=0;sketch=0;fontSize=15;fillColor=none;fontColor=#CC6600;strokeColor=#CC6600;" vertex="1" parent="1">
          <mxGeometry x="1477" y="65" width="65" height="960" as="geometry" />
        </mxCell>
        <mxCell id="MHh_uaF2gggkVHQZjeaD-65" value="" style="html=1;points=[];perimeter=orthogonalPerimeter;rounded=0;shadow=0;glass=0;sketch=0;fontSize=15;fillColor=none;" vertex="1" parent="MHh_uaF2gggkVHQZjeaD-64">
          <mxGeometry x="27.5" y="312" width="10" height="45" as="geometry" />
        </mxCell>
        <mxCell id="MHh_uaF2gggkVHQZjeaD-66" value="&lt;span style=&quot;font-family: Helvetica; font-size: 15px; font-style: normal; font-variant-ligatures: normal; font-variant-caps: normal; font-weight: 400; letter-spacing: normal; orphans: 2; text-indent: 0px; text-transform: none; widows: 2; word-spacing: 0px; -webkit-text-stroke-width: 0px; background-color: rgb(248, 249, 250); text-decoration-thickness: initial; text-decoration-style: initial; text-decoration-color: initial; float: none; display: inline !important;&quot;&gt;Base de donnée&lt;br&gt;Livraison&lt;br&gt;&lt;/span&gt;" style="text;whiteSpace=wrap;html=1;fontSize=15;align=center;fillColor=default;fontColor=#CC6600;" vertex="1" parent="MHh_uaF2gggkVHQZjeaD-64">
          <mxGeometry x="-27" y="57" width="119" height="45" as="geometry" />
        </mxCell>
        <mxCell id="MHh_uaF2gggkVHQZjeaD-75" value="" style="html=1;points=[];perimeter=orthogonalPerimeter;rounded=0;shadow=0;glass=0;sketch=0;fontSize=15;fillColor=none;" vertex="1" parent="MHh_uaF2gggkVHQZjeaD-64">
          <mxGeometry x="27.5" y="509" width="10" height="41" as="geometry" />
        </mxCell>
        <mxCell id="MHh_uaF2gggkVHQZjeaD-117" value="" style="html=1;points=[];perimeter=orthogonalPerimeter;rounded=0;shadow=0;glass=0;sketch=0;fontSize=15;fillColor=none;" vertex="1" parent="MHh_uaF2gggkVHQZjeaD-64">
          <mxGeometry x="27.5" y="728" width="10" height="41" as="geometry" />
        </mxCell>
        <mxCell id="MHh_uaF2gggkVHQZjeaD-68" value=":Iteration&lt;br&gt;Controler" style="shape=umlLifeline;perimeter=lifelinePerimeter;whiteSpace=wrap;html=1;container=1;collapsible=0;recursiveResize=0;outlineConnect=0;rounded=0;shadow=0;glass=0;sketch=0;fillColor=none;fontSize=15;fontColor=#CC6600;strokeColor=#CC6600;" vertex="1" parent="1">
          <mxGeometry x="923" y="65" width="110" height="960" as="geometry" />
        </mxCell>
        <mxCell id="MHh_uaF2gggkVHQZjeaD-69" value="" style="html=1;points=[];perimeter=orthogonalPerimeter;rounded=0;shadow=0;glass=0;sketch=0;fontSize=15;fillColor=none;" vertex="1" parent="MHh_uaF2gggkVHQZjeaD-68">
          <mxGeometry x="50" y="486" width="10" height="82" as="geometry" />
        </mxCell>
        <mxCell id="MHh_uaF2gggkVHQZjeaD-70" value=":Iteration&lt;br&gt;Service" style="shape=umlLifeline;perimeter=lifelinePerimeter;whiteSpace=wrap;html=1;container=1;collapsible=0;recursiveResize=0;outlineConnect=0;rounded=0;shadow=0;glass=0;sketch=0;fillColor=none;fontSize=15;fontColor=#CC6600;strokeColor=#CC6600;" vertex="1" parent="1">
          <mxGeometry x="1064" y="65" width="100" height="960" as="geometry" />
        </mxCell>
        <mxCell id="MHh_uaF2gggkVHQZjeaD-71" value="" style="html=1;points=[];perimeter=orthogonalPerimeter;rounded=0;shadow=0;glass=0;sketch=0;fontSize=15;fillColor=none;" vertex="1" parent="MHh_uaF2gggkVHQZjeaD-70">
          <mxGeometry x="45" y="498" width="10" height="66" as="geometry" />
        </mxCell>
        <mxCell id="MHh_uaF2gggkVHQZjeaD-72" value=":Task&lt;br&gt;Controler" style="shape=umlLifeline;perimeter=lifelinePerimeter;whiteSpace=wrap;html=1;container=1;collapsible=0;recursiveResize=0;outlineConnect=0;rounded=0;shadow=0;glass=0;sketch=0;fillColor=none;fontSize=15;fontColor=#CC6600;strokeColor=#CC6600;" vertex="1" parent="1">
          <mxGeometry x="1197" y="65" width="100" height="960" as="geometry" />
        </mxCell>
        <mxCell id="MHh_uaF2gggkVHQZjeaD-118" value="" style="html=1;points=[];perimeter=orthogonalPerimeter;rounded=0;shadow=0;glass=0;sketch=0;fontSize=15;fillColor=none;" vertex="1" parent="MHh_uaF2gggkVHQZjeaD-72">
          <mxGeometry x="44" y="707.5" width="10" height="82" as="geometry" />
        </mxCell>
        <mxCell id="MHh_uaF2gggkVHQZjeaD-74" value=":Task&lt;br&gt;Service" style="shape=umlLifeline;perimeter=lifelinePerimeter;whiteSpace=wrap;html=1;container=1;collapsible=0;recursiveResize=0;outlineConnect=0;rounded=0;shadow=0;glass=0;sketch=0;fillColor=none;fontSize=15;fontColor=#CC6600;strokeColor=#CC6600;" vertex="1" parent="1">
          <mxGeometry x="1335" y="65" width="100" height="960" as="geometry" />
        </mxCell>
        <mxCell id="MHh_uaF2gggkVHQZjeaD-77" value="" style="edgeStyle=elbowEdgeStyle;fontSize=12;html=1;endArrow=blockThin;endFill=1;rounded=0;fontColor=#005C00;" edge="1" parent="1" source="MHh_uaF2gggkVHQZjeaD-61" target="MHh_uaF2gggkVHQZjeaD-63">
          <mxGeometry width="160" relative="1" as="geometry">
            <mxPoint x="1182" y="378" as="sourcePoint" />
            <mxPoint x="1342" y="378" as="targetPoint" />
            <Array as="points">
              <mxPoint x="734" y="380" />
            </Array>
          </mxGeometry>
        </mxCell>
        <mxCell id="MHh_uaF2gggkVHQZjeaD-78" value="getTimeAndMaterial(id)" style="edgeLabel;html=1;align=center;verticalAlign=middle;resizable=0;points=[];fontColor=#000000;fontSize=15;" vertex="1" connectable="0" parent="MHh_uaF2gggkVHQZjeaD-77">
          <mxGeometry x="-0.1065" y="3" relative="1" as="geometry">
            <mxPoint x="6" y="-7" as="offset" />
          </mxGeometry>
        </mxCell>
        <mxCell id="MHh_uaF2gggkVHQZjeaD-79" value="" style="edgeStyle=elbowEdgeStyle;fontSize=12;html=1;endArrow=blockThin;endFill=1;rounded=0;fontColor=#005C00;" edge="1" parent="1" source="MHh_uaF2gggkVHQZjeaD-63" target="MHh_uaF2gggkVHQZjeaD-65">
          <mxGeometry width="160" relative="1" as="geometry">
            <mxPoint x="1151" y="375" as="sourcePoint" />
            <mxPoint x="1311" y="375" as="targetPoint" />
            <Array as="points">
              <mxPoint x="1349" y="386" />
            </Array>
          </mxGeometry>
        </mxCell>
        <mxCell id="MHh_uaF2gggkVHQZjeaD-80" value="&lt;font color=&quot;#000000&quot; style=&quot;font-size: 14px;&quot;&gt;findOne(id)&lt;/font&gt;" style="edgeLabel;html=1;align=center;verticalAlign=middle;resizable=0;points=[];fontColor=#005C00;fontSize=14;" vertex="1" connectable="0" parent="MHh_uaF2gggkVHQZjeaD-79">
          <mxGeometry x="-0.3225" relative="1" as="geometry">
            <mxPoint x="130" y="-12" as="offset" />
          </mxGeometry>
        </mxCell>
        <mxCell id="MHh_uaF2gggkVHQZjeaD-81" value="" style="edgeStyle=elbowEdgeStyle;fontSize=12;html=1;endArrow=blockThin;endFill=1;rounded=0;fontColor=#000000;" edge="1" parent="1" source="MHh_uaF2gggkVHQZjeaD-65" target="MHh_uaF2gggkVHQZjeaD-63">
          <mxGeometry width="160" relative="1" as="geometry">
            <mxPoint x="1114" y="421" as="sourcePoint" />
            <mxPoint x="1274" y="421" as="targetPoint" />
            <Array as="points">
              <mxPoint x="1346" y="415" />
            </Array>
          </mxGeometry>
        </mxCell>
        <mxCell id="MHh_uaF2gggkVHQZjeaD-82" value="accord" style="edgeLabel;html=1;align=center;verticalAlign=middle;resizable=0;points=[];fontSize=14;fontColor=#000000;" vertex="1" connectable="0" parent="MHh_uaF2gggkVHQZjeaD-81">
          <mxGeometry x="0.0246" y="-3" relative="1" as="geometry">
            <mxPoint x="-11" y="-8" as="offset" />
          </mxGeometry>
        </mxCell>
        <mxCell id="MHh_uaF2gggkVHQZjeaD-83" value="" style="edgeStyle=elbowEdgeStyle;fontSize=12;html=1;endArrow=blockThin;endFill=1;rounded=0;fontColor=#000000;" edge="1" parent="1" source="MHh_uaF2gggkVHQZjeaD-63" target="MHh_uaF2gggkVHQZjeaD-61">
          <mxGeometry width="160" relative="1" as="geometry">
            <mxPoint x="545" y="466" as="sourcePoint" />
            <mxPoint x="705" y="466" as="targetPoint" />
            <Array as="points">
              <mxPoint x="788" y="422" />
            </Array>
          </mxGeometry>
        </mxCell>
        <mxCell id="MHh_uaF2gggkVHQZjeaD-84" value="accord" style="edgeLabel;html=1;align=center;verticalAlign=middle;resizable=0;points=[];fontSize=14;fontColor=#000000;" vertex="1" connectable="0" parent="MHh_uaF2gggkVHQZjeaD-83">
          <mxGeometry x="0.2045" y="2" relative="1" as="geometry">
            <mxPoint x="25" y="-15" as="offset" />
          </mxGeometry>
        </mxCell>
        <mxCell id="MHh_uaF2gggkVHQZjeaD-85" value="" style="edgeStyle=elbowEdgeStyle;fontSize=12;html=1;endArrow=blockThin;endFill=1;rounded=0;fontColor=#000000;" edge="1" parent="1" source="MHh_uaF2gggkVHQZjeaD-61" target="MHh_uaF2gggkVHQZjeaD-43">
          <mxGeometry width="160" relative="1" as="geometry">
            <mxPoint x="645" y="449" as="sourcePoint" />
            <mxPoint x="805" y="449" as="targetPoint" />
            <Array as="points">
              <mxPoint x="536" y="430" />
            </Array>
          </mxGeometry>
        </mxCell>
        <mxCell id="MHh_uaF2gggkVHQZjeaD-86" value="accord" style="edgeLabel;html=1;align=center;verticalAlign=middle;resizable=0;points=[];fontSize=14;fontColor=#000000;" vertex="1" connectable="0" parent="MHh_uaF2gggkVHQZjeaD-85">
          <mxGeometry x="-0.0553" y="1" relative="1" as="geometry">
            <mxPoint x="-5" y="-12" as="offset" />
          </mxGeometry>
        </mxCell>
        <mxCell id="MHh_uaF2gggkVHQZjeaD-95" value="" style="edgeStyle=elbowEdgeStyle;fontSize=12;html=1;endArrow=blockThin;endFill=1;rounded=0;fontColor=#000000;" edge="1" parent="1" source="MHh_uaF2gggkVHQZjeaD-43" target="MHh_uaF2gggkVHQZjeaD-69">
          <mxGeometry width="160" relative="1" as="geometry">
            <mxPoint x="963" y="518" as="sourcePoint" />
            <mxPoint x="1123" y="518" as="targetPoint" />
            <Array as="points">
              <mxPoint x="705" y="560" />
            </Array>
          </mxGeometry>
        </mxCell>
        <mxCell id="MHh_uaF2gggkVHQZjeaD-96" value="find(iterationId)" style="edgeLabel;html=1;align=center;verticalAlign=middle;resizable=0;points=[];fontSize=15;fontColor=#000000;" vertex="1" connectable="0" parent="MHh_uaF2gggkVHQZjeaD-95">
          <mxGeometry x="0.0403" relative="1" as="geometry">
            <mxPoint x="3" y="-11" as="offset" />
          </mxGeometry>
        </mxCell>
        <mxCell id="MHh_uaF2gggkVHQZjeaD-97" value="" style="edgeStyle=elbowEdgeStyle;fontSize=12;html=1;endArrow=blockThin;endFill=1;rounded=0;fontColor=#000000;" edge="1" parent="1" source="MHh_uaF2gggkVHQZjeaD-69" target="MHh_uaF2gggkVHQZjeaD-71">
          <mxGeometry width="160" relative="1" as="geometry">
            <mxPoint x="821" y="613" as="sourcePoint" />
            <mxPoint x="981" y="613" as="targetPoint" />
            <Array as="points">
              <mxPoint x="1041" y="570" />
            </Array>
          </mxGeometry>
        </mxCell>
        <mxCell id="MHh_uaF2gggkVHQZjeaD-98" value="&lt;span style=&quot;font-size: 14px;&quot;&gt;getIteration(id)&lt;/span&gt;" style="edgeLabel;html=1;align=center;verticalAlign=middle;resizable=0;points=[];fontSize=15;fontColor=#000000;" vertex="1" connectable="0" parent="MHh_uaF2gggkVHQZjeaD-97">
          <mxGeometry x="0.296" y="2" relative="1" as="geometry">
            <mxPoint x="-16" y="-10" as="offset" />
          </mxGeometry>
        </mxCell>
        <mxCell id="MHh_uaF2gggkVHQZjeaD-99" value="" style="edgeStyle=elbowEdgeStyle;fontSize=12;html=1;endArrow=blockThin;endFill=1;rounded=0;fontColor=#000000;" edge="1" parent="1" source="MHh_uaF2gggkVHQZjeaD-71" target="MHh_uaF2gggkVHQZjeaD-75">
          <mxGeometry width="160" relative="1" as="geometry">
            <mxPoint x="993" y="579.9999999999998" as="sourcePoint" />
            <mxPoint x="1119" y="579.9999999999998" as="targetPoint" />
            <Array as="points">
              <mxPoint x="1291" y="580" />
            </Array>
          </mxGeometry>
        </mxCell>
        <mxCell id="MHh_uaF2gggkVHQZjeaD-100" value="&lt;span style=&quot;font-size: 14px;&quot;&gt;findOne(id)&lt;/span&gt;" style="edgeLabel;html=1;align=center;verticalAlign=middle;resizable=0;points=[];fontSize=15;fontColor=#000000;" vertex="1" connectable="0" parent="MHh_uaF2gggkVHQZjeaD-99">
          <mxGeometry x="0.296" y="2" relative="1" as="geometry">
            <mxPoint x="-174" y="-11" as="offset" />
          </mxGeometry>
        </mxCell>
        <mxCell id="MHh_uaF2gggkVHQZjeaD-101" value="" style="edgeStyle=elbowEdgeStyle;fontSize=12;html=1;endArrow=blockThin;endFill=1;rounded=0;fontColor=#000000;" edge="1" parent="1" source="MHh_uaF2gggkVHQZjeaD-75" target="MHh_uaF2gggkVHQZjeaD-71">
          <mxGeometry width="160" relative="1" as="geometry">
            <mxPoint x="1772.5" y="425" as="sourcePoint" />
            <mxPoint x="842" y="425" as="targetPoint" />
            <Array as="points">
              <mxPoint x="1447" y="606" />
            </Array>
          </mxGeometry>
        </mxCell>
        <mxCell id="MHh_uaF2gggkVHQZjeaD-102" value="iteration" style="edgeLabel;html=1;align=center;verticalAlign=middle;resizable=0;points=[];fontSize=14;fontColor=#000000;" vertex="1" connectable="0" parent="MHh_uaF2gggkVHQZjeaD-101">
          <mxGeometry x="0.0246" y="-3" relative="1" as="geometry">
            <mxPoint x="-72" y="-7" as="offset" />
          </mxGeometry>
        </mxCell>
        <mxCell id="MHh_uaF2gggkVHQZjeaD-103" value="" style="edgeStyle=elbowEdgeStyle;fontSize=12;html=1;endArrow=blockThin;endFill=1;rounded=0;fontColor=#000000;" edge="1" parent="1" source="MHh_uaF2gggkVHQZjeaD-71" target="MHh_uaF2gggkVHQZjeaD-69">
          <mxGeometry width="160" relative="1" as="geometry">
            <mxPoint x="1102" y="647" as="sourcePoint" />
            <mxPoint x="921" y="647" as="targetPoint" />
            <Array as="points">
              <mxPoint x="1057" y="621" />
            </Array>
          </mxGeometry>
        </mxCell>
        <mxCell id="MHh_uaF2gggkVHQZjeaD-104" value="iteration" style="edgeLabel;html=1;align=center;verticalAlign=middle;resizable=0;points=[];fontSize=14;fontColor=#000000;" vertex="1" connectable="0" parent="MHh_uaF2gggkVHQZjeaD-103">
          <mxGeometry x="0.2045" y="2" relative="1" as="geometry">
            <mxPoint x="16" y="-13" as="offset" />
          </mxGeometry>
        </mxCell>
        <mxCell id="MHh_uaF2gggkVHQZjeaD-105" value="" style="edgeStyle=elbowEdgeStyle;fontSize=12;html=1;endArrow=blockThin;endFill=1;rounded=0;fontColor=#000000;" edge="1" parent="1" source="MHh_uaF2gggkVHQZjeaD-69" target="MHh_uaF2gggkVHQZjeaD-43">
          <mxGeometry width="160" relative="1" as="geometry">
            <mxPoint x="667" y="612" as="sourcePoint" />
            <mxPoint x="827" y="612" as="targetPoint" />
            <Array as="points">
              <mxPoint x="717" y="628" />
            </Array>
          </mxGeometry>
        </mxCell>
        <mxCell id="MHh_uaF2gggkVHQZjeaD-106" value="iteration" style="edgeLabel;html=1;align=center;verticalAlign=middle;resizable=0;points=[];fontSize=15;fontColor=#000000;" vertex="1" connectable="0" parent="MHh_uaF2gggkVHQZjeaD-105">
          <mxGeometry x="-0.0646" y="-2" relative="1" as="geometry">
            <mxPoint x="3" y="-11" as="offset" />
          </mxGeometry>
        </mxCell>
        <mxCell id="MHh_uaF2gggkVHQZjeaD-113" value="&lt;div style=&quot;text-align: left; font-size: 15px;&quot;&gt;&lt;/div&gt;&lt;span style=&quot;text-align: right;&quot;&gt;&lt;div style=&quot;text-align: left;&quot;&gt;&lt;span style=&quot;background-color: initial;&quot;&gt;[True&lt;/span&gt;&lt;span style=&quot;background-color: initial;&quot;&gt;]&lt;/span&gt;&lt;/div&gt;&lt;/span&gt;" style="text;html=1;strokeColor=none;fillColor=none;align=center;verticalAlign=middle;whiteSpace=wrap;rounded=0;fontSize=15;fontColor=#009900;" vertex="1" parent="1">
          <mxGeometry x="345" y="764" width="46" height="28" as="geometry" />
        </mxCell>
        <mxCell id="MHh_uaF2gggkVHQZjeaD-114" value="&lt;div style=&quot;text-align: left; font-size: 15px;&quot;&gt;&lt;/div&gt;&lt;span style=&quot;text-align: right;&quot;&gt;&lt;div style=&quot;text-align: left;&quot;&gt;&lt;span style=&quot;background-color: initial;&quot;&gt;[True&lt;/span&gt;&lt;span style=&quot;background-color: initial;&quot;&gt;]&lt;/span&gt;&lt;/div&gt;&lt;/span&gt;" style="text;html=1;strokeColor=none;fillColor=none;align=center;verticalAlign=middle;whiteSpace=wrap;rounded=0;fontSize=15;fontColor=#009900;" vertex="1" parent="1">
          <mxGeometry x="361" y="902" width="46" height="21" as="geometry" />
        </mxCell>
        <mxCell id="MHh_uaF2gggkVHQZjeaD-119" value="" style="html=1;points=[];perimeter=orthogonalPerimeter;rounded=0;shadow=0;glass=0;sketch=0;fontSize=15;fillColor=none;" vertex="1" parent="1">
          <mxGeometry x="1380" y="776" width="10" height="66" as="geometry" />
        </mxCell>
        <mxCell id="MHh_uaF2gggkVHQZjeaD-120" value="" style="edgeStyle=elbowEdgeStyle;fontSize=12;html=1;endArrow=blockThin;endFill=1;rounded=0;fontColor=#000000;" edge="1" parent="1" target="MHh_uaF2gggkVHQZjeaD-118" source="MHh_uaF2gggkVHQZjeaD-43">
          <mxGeometry width="160" relative="1" as="geometry">
            <mxPoint x="451" y="781" as="sourcePoint" />
            <mxPoint x="1122" y="739" as="targetPoint" />
            <Array as="points">
              <mxPoint x="704" y="781" />
            </Array>
          </mxGeometry>
        </mxCell>
        <mxCell id="MHh_uaF2gggkVHQZjeaD-121" value="find(taskId)" style="edgeLabel;html=1;align=center;verticalAlign=middle;resizable=0;points=[];fontSize=15;fontColor=#000000;" vertex="1" connectable="0" parent="MHh_uaF2gggkVHQZjeaD-120">
          <mxGeometry x="0.0403" relative="1" as="geometry">
            <mxPoint x="3" y="-11" as="offset" />
          </mxGeometry>
        </mxCell>
        <mxCell id="MHh_uaF2gggkVHQZjeaD-122" value="" style="edgeStyle=elbowEdgeStyle;fontSize=12;html=1;endArrow=blockThin;endFill=1;rounded=0;fontColor=#000000;" edge="1" parent="1" source="MHh_uaF2gggkVHQZjeaD-118" target="MHh_uaF2gggkVHQZjeaD-119">
          <mxGeometry width="160" relative="1" as="geometry">
            <mxPoint x="820" y="834" as="sourcePoint" />
            <mxPoint x="980" y="834" as="targetPoint" />
            <Array as="points">
              <mxPoint x="1300" y="791" />
            </Array>
          </mxGeometry>
        </mxCell>
        <mxCell id="MHh_uaF2gggkVHQZjeaD-123" value="&lt;span style=&quot;font-size: 14px;&quot;&gt;getTask(id)&lt;/span&gt;" style="edgeLabel;html=1;align=center;verticalAlign=middle;resizable=0;points=[];fontSize=15;fontColor=#000000;" vertex="1" connectable="0" parent="MHh_uaF2gggkVHQZjeaD-122">
          <mxGeometry x="0.296" y="2" relative="1" as="geometry">
            <mxPoint x="-16" y="-10" as="offset" />
          </mxGeometry>
        </mxCell>
        <mxCell id="MHh_uaF2gggkVHQZjeaD-124" value="" style="edgeStyle=elbowEdgeStyle;fontSize=12;html=1;endArrow=blockThin;endFill=1;rounded=0;fontColor=#000000;" edge="1" parent="1" source="MHh_uaF2gggkVHQZjeaD-119" target="MHh_uaF2gggkVHQZjeaD-117">
          <mxGeometry width="160" relative="1" as="geometry">
            <mxPoint x="992" y="800.9999999999998" as="sourcePoint" />
            <mxPoint x="1118" y="800.9999999999998" as="targetPoint" />
            <Array as="points">
              <mxPoint x="1414" y="801" />
            </Array>
          </mxGeometry>
        </mxCell>
        <mxCell id="MHh_uaF2gggkVHQZjeaD-125" value="&lt;span style=&quot;font-size: 14px;&quot;&gt;findOne(id)&lt;/span&gt;" style="edgeLabel;html=1;align=center;verticalAlign=middle;resizable=0;points=[];fontSize=15;fontColor=#000000;" vertex="1" connectable="0" parent="MHh_uaF2gggkVHQZjeaD-124">
          <mxGeometry x="0.296" y="2" relative="1" as="geometry">
            <mxPoint x="-24" y="-12" as="offset" />
          </mxGeometry>
        </mxCell>
        <mxCell id="MHh_uaF2gggkVHQZjeaD-126" value="" style="edgeStyle=elbowEdgeStyle;fontSize=12;html=1;endArrow=blockThin;endFill=1;rounded=0;fontColor=#000000;" edge="1" parent="1" source="MHh_uaF2gggkVHQZjeaD-117" target="MHh_uaF2gggkVHQZjeaD-119">
          <mxGeometry width="160" relative="1" as="geometry">
            <mxPoint x="1771.5" y="646" as="sourcePoint" />
            <mxPoint x="841" y="646" as="targetPoint" />
            <Array as="points">
              <mxPoint x="1446" y="827" />
            </Array>
          </mxGeometry>
        </mxCell>
        <mxCell id="MHh_uaF2gggkVHQZjeaD-127" value="tache" style="edgeLabel;html=1;align=center;verticalAlign=middle;resizable=0;points=[];fontSize=14;fontColor=#000000;" vertex="1" connectable="0" parent="MHh_uaF2gggkVHQZjeaD-126">
          <mxGeometry x="0.0246" y="-3" relative="1" as="geometry">
            <mxPoint x="4" y="-8" as="offset" />
          </mxGeometry>
        </mxCell>
        <mxCell id="MHh_uaF2gggkVHQZjeaD-128" value="" style="edgeStyle=elbowEdgeStyle;fontSize=12;html=1;endArrow=blockThin;endFill=1;rounded=0;fontColor=#000000;" edge="1" parent="1" source="MHh_uaF2gggkVHQZjeaD-119" target="MHh_uaF2gggkVHQZjeaD-118">
          <mxGeometry width="160" relative="1" as="geometry">
            <mxPoint x="1101" y="868" as="sourcePoint" />
            <mxPoint x="920" y="868" as="targetPoint" />
            <Array as="points">
              <mxPoint x="1311" y="836" />
            </Array>
          </mxGeometry>
        </mxCell>
        <mxCell id="MHh_uaF2gggkVHQZjeaD-129" value="tache" style="edgeLabel;html=1;align=center;verticalAlign=middle;resizable=0;points=[];fontSize=14;fontColor=#000000;" vertex="1" connectable="0" parent="MHh_uaF2gggkVHQZjeaD-128">
          <mxGeometry x="0.2045" y="2" relative="1" as="geometry">
            <mxPoint x="16" y="-13" as="offset" />
          </mxGeometry>
        </mxCell>
        <mxCell id="MHh_uaF2gggkVHQZjeaD-130" value="" style="edgeStyle=elbowEdgeStyle;fontSize=12;html=1;endArrow=blockThin;endFill=1;rounded=0;fontColor=#000000;" edge="1" parent="1" source="MHh_uaF2gggkVHQZjeaD-118" target="MHh_uaF2gggkVHQZjeaD-43">
          <mxGeometry width="160" relative="1" as="geometry">
            <mxPoint x="666" y="833" as="sourcePoint" />
            <mxPoint x="451" y="849" as="targetPoint" />
            <Array as="points">
              <mxPoint x="716" y="849" />
            </Array>
          </mxGeometry>
        </mxCell>
        <mxCell id="MHh_uaF2gggkVHQZjeaD-131" value="&lt;span style=&quot;font-size: 14px;&quot;&gt;tache&lt;/span&gt;" style="edgeLabel;html=1;align=center;verticalAlign=middle;resizable=0;points=[];fontSize=15;fontColor=#000000;" vertex="1" connectable="0" parent="MHh_uaF2gggkVHQZjeaD-130">
          <mxGeometry x="-0.0646" y="-2" relative="1" as="geometry">
            <mxPoint x="3" y="-11" as="offset" />
          </mxGeometry>
        </mxCell>
        <mxCell id="MHh_uaF2gggkVHQZjeaD-133" value="" style="edgeStyle=elbowEdgeStyle;fontSize=12;html=1;endArrow=blockThin;endFill=1;rounded=0;fontColor=#000000;" edge="1" parent="1" source="MHh_uaF2gggkVHQZjeaD-43" target="MHh_uaF2gggkVHQZjeaD-132">
          <mxGeometry width="160" relative="1" as="geometry">
            <mxPoint x="413" y="797" as="sourcePoint" />
            <mxPoint x="573" y="797" as="targetPoint" />
            <Array as="points">
              <mxPoint x="363" y="972" />
            </Array>
          </mxGeometry>
        </mxCell>
        <mxCell id="MHh_uaF2gggkVHQZjeaD-134" value="risque" style="edgeLabel;html=1;align=center;verticalAlign=middle;resizable=0;points=[];fontSize=15;fontColor=#000000;" vertex="1" connectable="0" parent="MHh_uaF2gggkVHQZjeaD-133">
          <mxGeometry x="0.0747" y="-2" relative="1" as="geometry">
            <mxPoint x="1" y="-9" as="offset" />
          </mxGeometry>
        </mxCell>
        <mxCell id="MHh_uaF2gggkVHQZjeaD-135" value="" style="edgeStyle=elbowEdgeStyle;fontSize=12;html=1;endArrow=blockThin;endFill=1;rounded=0;fontColor=#000000;" edge="1" parent="1" source="MHh_uaF2gggkVHQZjeaD-132" target="MHh_uaF2gggkVHQZjeaD-5">
          <mxGeometry width="160" relative="1" as="geometry">
            <mxPoint x="442" y="982" as="sourcePoint" />
            <mxPoint x="299.5" y="982" as="targetPoint" />
            <Array as="points">
              <mxPoint x="268" y="980" />
            </Array>
          </mxGeometry>
        </mxCell>
        <mxCell id="MHh_uaF2gggkVHQZjeaD-136" value="risque" style="edgeLabel;html=1;align=center;verticalAlign=middle;resizable=0;points=[];fontSize=15;fontColor=#000000;" vertex="1" connectable="0" parent="MHh_uaF2gggkVHQZjeaD-135">
          <mxGeometry x="0.0747" y="-2" relative="1" as="geometry">
            <mxPoint x="11" y="-9" as="offset" />
          </mxGeometry>
        </mxCell>
      </root>
    </mxGraphModel>
  </diagram>
</mxfile>
